<svg width="312" height="85" viewBox="0 0 312 85" fill="none" xmlns="http://www.w3.org/2000/svg">
<path d="M16.2048 36.7287H0V0.949617C0 0.321645 0.382909 0 1.16405 0H15.0407C15.8142 0 16.2048 0.321645 16.2048 0.949617V36.7287ZM63.318 0C64.0915 0 64.482 0.321645 64.482 0.949617V83.7501C64.482 84.3857 64.0915 84.6997 63.318 84.6997H49.4413C48.6602 84.6997 48.2773 84.3857 48.2773 83.7501V68.8319H16.2048V83.7501C16.2048 84.3857 15.8142 84.6997 15.0407 84.6997H1.16405C0.382909 84.6997 0 84.3857 0 83.7501V52.9335H16.2048V53.056H48.2773V0.949617C48.2773 0.321645 48.6602 0 49.4413 0H63.318Z" fill="#0D0D0D"/>
<path d="M116.461 42.5796C116.461 44.7698 115.695 46.6384 114.164 48.1854C112.647 49.74 110.771 50.5135 108.527 50.5135C106.322 50.5135 104.438 49.74 102.891 48.1854C101.336 46.6384 100.563 44.7698 100.563 42.5796C100.563 40.3128 101.336 38.4059 102.891 36.8513C104.438 35.3043 106.322 34.5232 108.527 34.5232C110.771 34.5232 112.647 35.3043 114.164 36.8513C115.695 38.4059 116.461 40.3128 116.461 42.5796ZM149.269 42.2426C149.269 47.5344 148.419 52.7114 146.726 57.7735C145.026 62.8202 142.484 67.3768 139.099 71.4357C135.706 75.4792 131.471 78.711 126.386 81.1156C121.316 83.505 115.397 84.6997 108.619 84.6997C101.773 84.6997 95.7915 83.505 90.6682 81.1156C85.5602 78.711 81.3099 75.4792 77.925 71.4357C74.5324 67.3768 71.9899 62.8202 70.2974 57.7735C68.5973 52.7114 67.7549 47.5344 67.7549 42.2426C67.7549 36.9585 68.5973 31.8122 70.2974 26.8037C71.9899 21.7799 74.5324 17.2616 77.925 13.2334C81.3099 9.21281 85.5602 6.00403 90.6682 3.61467C95.7915 1.20999 101.773 0 108.619 0C115.397 0 121.316 1.20999 126.386 3.61467C131.471 6.00403 135.706 9.21281 139.099 13.2334C142.484 17.2616 145.026 21.7799 146.726 26.8037C148.419 31.8122 149.269 36.9585 149.269 42.2426ZM133.401 42.5796C133.401 39.1104 132.865 35.7408 131.808 32.4708C130.744 29.1854 129.189 26.2217 127.152 23.5873C125.107 20.9375 122.526 18.8315 119.402 17.2769C116.293 15.7299 112.701 14.9488 108.619 14.9488C104.453 14.9488 100.815 15.7299 97.7138 17.2769C94.6045 18.8315 92.0161 20.9375 89.933 23.5873C87.85 26.2217 86.2954 29.1854 85.2768 32.4708C84.2506 35.7408 83.7452 39.1104 83.7452 42.5796C83.7452 45.9492 84.2506 49.2575 85.2768 52.5046C86.2954 55.7517 87.85 58.6848 89.933 61.2962C92.0161 63.9153 94.6045 65.9984 97.7138 67.5453C100.815 69.0999 104.453 69.8734 108.619 69.8734C112.701 69.8734 116.293 69.0999 119.402 67.5453C122.526 65.9984 125.107 63.9153 127.152 61.2962C129.189 58.6848 130.744 55.7517 131.808 52.5046C132.865 49.2575 133.401 45.9492 133.401 42.5796Z" fill="#0D0D0D"/>
<path d="M192.138 37.709C196.587 39.7537 199.995 42.7328 202.369 46.6538C204.736 50.5594 205.923 55.0165 205.923 60.0403C205.923 65.3321 204.667 69.8121 202.155 73.4881C199.643 77.1487 196.396 79.9363 192.413 81.8508C188.431 83.7501 184.181 84.6997 179.67 84.6997C179.67 84.6997 179.624 84.6997 179.548 84.6997V69.4445C179.624 69.4445 179.67 69.4445 179.67 69.4445C182.488 69.4445 184.947 68.5868 187.053 66.8714C189.174 65.1406 190.239 62.8585 190.239 60.0403C190.239 57.919 189.687 56.1193 188.584 54.6489C187.497 53.1632 186.141 51.9992 184.51 51.1568C182.894 50.2991 181.278 49.8396 179.67 49.7783C179.303 49.7783 177.878 49.6558 175.412 49.4107C172.939 49.1503 170.151 48.3079 167.05 46.8988C162.677 44.8617 159.284 42.0205 156.879 38.3829C154.49 34.7529 153.295 30.4643 153.295 25.5171C153.295 20.233 154.536 15.684 157.033 11.8855C159.545 8.07174 162.807 5.13865 166.835 3.09391C170.856 1.03386 175.137 0 179.67 0C184.526 0 188.898 1.01088 192.781 3.03265C196.656 5.0391 199.742 7.85731 202.032 11.4873C204.337 15.1249 205.524 19.3446 205.586 24.1386C205.662 24.2842 205.586 24.4679 205.341 24.69C205.095 24.8968 204.789 24.9964 204.422 24.9964H191.188C190.897 24.9964 190.637 24.8968 190.392 24.69C190.147 24.4679 190.024 24.2842 190.024 24.1386C189.963 21.1213 188.898 18.8851 186.838 17.4301C184.794 15.9827 182.404 15.2551 179.67 15.2551C176.768 15.2551 174.279 16.1282 172.196 17.8589C170.113 19.5744 169.071 22.1322 169.071 25.5171C169.071 28.5651 170.159 30.8779 172.349 32.4708C174.532 34.0484 176.975 34.8295 179.67 34.8295C179.869 34.8295 180.566 34.8754 181.753 34.952C182.956 35.0133 184.495 35.243 186.379 35.6259C188.255 36.0165 190.177 36.7134 192.138 37.709Z" fill="#0D0D0D"/>
<path d="M224.763 36.7287H208.558V0.949617C208.558 0.321645 208.941 0 209.722 0H223.599C224.372 0 224.763 0.321645 224.763 0.949617V36.7287ZM271.876 0C272.649 0 273.04 0.321645 273.04 0.949617V83.7501C273.04 84.3857 272.649 84.6997 271.876 84.6997H257.999C257.218 84.6997 256.835 84.3857 256.835 83.7501V68.8319H224.763V83.7501C224.763 84.3857 224.372 84.6997 223.599 84.6997H209.722C208.941 84.6997 208.558 84.3857 208.558 83.7501V52.9335H224.763V53.056H256.835V0.949617C256.835 0.321645 257.218 0 257.999 0H271.876Z" fill="#0D0D0D"/>
<path d="M310.836 70.2104C311.609 70.2104 312 70.532 312 71.16V83.7501C312 84.3857 311.609 84.6997 310.836 84.6997H277.477C276.696 84.6997 276.313 84.3857 276.313 83.7501V71.16C276.313 70.532 276.696 70.2104 277.477 70.2104H286.146V0H302.351V70.2104H310.836Z" fill="#0D0D0D"/>
</svg>
