<svg width="76" height="70" viewBox="0 0 76 70" fill="none" xmlns="http://www.w3.org/2000/svg">
<path d="M58.6068 11.3433H18.9414V4.62866H58.6068V11.3433ZM58.6068 22.6073H18.9414V15.7404H58.6068V22.6073ZM64.3878 0H13.3127V27.236H64.3878V0ZM41.7805 60.2596V51.9293H64.2355V47.3005H41.7805V40.0429H67.4008V35.1095H41.7805V28.9378H35.92V35.1095H20.4843C21.7227 33.1031 22.9543 30.9377 23.9608 28.8583L18.3255 27.3154C15.2397 34.0301 9.9157 40.6653 4.20764 44.9829C5.67107 45.7576 7.98864 47.5322 9.06805 48.6116C11.6903 46.2211 14.4716 43.2876 17.0144 40.0429H35.92V47.3005H14.3921V51.9293H35.92V60.2596H5.36635V65.3519H72.2613V60.2596H41.7805Z" fill="#0D0D0D"/>
<path fill-rule="evenodd" clip-rule="evenodd" d="M72.9456 66.7265C72.9456 66.7265 74.6657 64.96 74.7518 63.937C74.8379 62.9139 74.2203 58.8413 74.2203 58.8413C74.2203 58.8413 73.3495 51.8983 70.6395 49.6733C67.9294 47.44 64.2344 46.2448 62.3622 46.4434C60.4881 46.6487 59.5445 46.849 59.5445 46.849C59.5445 46.849 51.0204 42.6358 41.7645 41.1161C32.5037 39.5931 23.7925 38.272 21.4086 38.81C19.0297 39.3547 15.5019 42.3047 14.5781 43.5132C13.6545 44.7233 12.9044 46.0444 12.9044 46.0444C12.9044 46.0444 9.64159 46.2712 8.25249 48.5625C6.85871 50.8553 6.24612 53.3468 6.06075 55.3997C5.87524 57.4524 6.25443 58.588 6.25443 58.588C6.25443 58.588 6.34053 65.7977 6.89844 66.9996C7.45634 68.2031 8.56551 68.8604 8.56551 68.8604C8.56551 68.8604 10.8384 68.9199 11.8549 68.9001C12.878 68.8737 14.8381 68.814 14.8712 68.3753C14.8976 67.9366 16.1062 65.7696 16.1062 65.7696C16.1062 65.7696 19.8277 65.7166 20.4981 66.0625C21.1686 66.4151 22.5178 67.8373 23.3093 68.3158C24.0923 68.7942 33.0153 68.3886 33.0153 68.3886L35.8181 66.0162L62.2744 66.3225L72.9456 66.7265Z" fill="#0D0D0D"/>
<mask id="mask0_21_195" style="mask-type:luminance" maskUnits="userSpaceOnUse" x="6" y="37" width="70" height="33">
<path d="M6.91992 37.7339H76V69.7444H6.91992V37.7339Z" fill="white"/>
</mask>
<g mask="url(#mask0_21_195)">
<path fill-rule="evenodd" clip-rule="evenodd" d="M31.8069 52.6962C31.8069 52.6962 28.5373 48.051 26.0392 47.8059C23.5411 47.5592 20 49.7247 16.9042 49.2147C13.815 48.7031 11.7341 47.2944 10.3931 47.3473C9.05716 47.4069 8.25255 48.5625 8.25255 48.5625C8.25255 48.5625 9.54889 47.7198 11.2557 48.3372C12.9642 48.9482 16.7784 51.4993 20.8177 50.5822C24.8637 49.6733 25.6005 48.7231 27.1484 49.2479C28.6962 49.7792 31.8069 52.6962 31.8069 52.6962ZM21.7813 55.2805C21.7813 55.2805 13.6479 53.3998 13.6147 54.1713C13.5749 54.941 15.0897 59.6195 17.1955 61.3064C19.3079 62.9934 20.2317 62.9867 20.2317 62.9867C20.2317 62.9867 20.1323 59.6376 20.5379 58.4424C20.9436 57.2471 21.7813 55.2805 21.7813 55.2805ZM29.6663 64.1373C29.6663 64.1373 29.9858 60.861 29.8584 59.4721C29.7392 58.0831 29.1547 55.8118 29.1547 55.8118C29.1547 55.8118 28.2658 54.4626 26.8834 54.0238C25.7014 53.6515 24.67 54.297 24.046 54.7292C22.412 55.8515 20.9105 59.4125 21.4684 62.7748C21.614 63.6439 22.0858 64.715 22.4186 65.4385C23.3291 67.4117 24.5508 68.4547 25.7925 68.1286C26.8769 67.8438 28.1714 66.8671 28.9561 65.7911C29.4014 65.1786 29.6663 64.182 29.6663 64.1373ZM72.7255 53.4131C72.7255 53.4131 74.6194 57.1942 74.1609 60.3031C73.6956 63.4188 73.8561 63.7433 73.8892 63.8045C73.9225 63.8642 74.5598 64.8011 74.1276 65.3723C73.6956 65.9433 72.9854 66.4615 72.9854 66.4615L59.2118 66.2828C59.2118 66.2828 60.6405 68.7676 62.733 69.1599C64.8189 69.5508 67.0323 69.5441 67.0323 69.5441L69.8085 69.3785C69.8085 69.3785 74.4869 67.8373 75.1971 63.8773C75.9156 59.9174 75.6424 56.6428 74.4057 55.1463C73.1774 53.6515 72.7255 53.4131 72.7255 53.4131ZM72.0484 63.3063C72.0484 63.3063 73.53 60.0697 73.2635 58.8944C72.9987 57.7107 72.1941 57.4127 71.4358 57.7107C70.6793 58.0103 64.2477 59.9307 64.2477 59.9307L47.3187 59.631C47.3187 59.631 39.6455 57.1528 37.5067 57.5054C35.3728 57.858 35.5267 58.449 35.2751 59.2784C35.0219 60.1111 35.886 63.3591 35.886 63.3591C35.886 63.3591 44.1369 63.6191 44.3886 63.4916C44.6353 63.3724 45.4133 62.7003 45.4133 62.7003L66.0423 62.9204C66.0423 62.9204 66.6267 63.3724 66.832 63.4188C67.0323 63.4652 71.1908 63.4916 71.4425 63.4519C71.7023 63.4188 72.0484 63.3063 72.0484 63.3063ZM8.34697 54.5636C7.61519 54.5636 7.09052 57.3596 7.17814 60.8146C7.26923 64.2696 7.9347 67.0724 8.66483 67.0724C9.39661 67.0724 9.92128 64.2696 9.82868 60.8146C9.74257 57.3596 9.0771 54.5636 8.34697 54.5636ZM37.2335 66.0228C37.2335 66.0228 36.3842 67.4714 35.5068 68.2958C34.6294 69.1252 34.3712 69.1318 34.3712 69.1318L24.9498 69.1849L24.3721 68.9729C24.3721 68.9729 27.0026 69.0723 28.1714 67.8704C29.3484 66.6602 29.9129 65.0197 29.9129 65.0197C29.9129 65.0197 30.7821 65.8639 31.2076 65.9302C31.6264 66.003 37.2335 66.0228 37.2335 66.0228ZM59.9087 46.8226C59.9087 46.8226 59.4452 47.3473 58.2747 47.4467C57.1127 47.5459 48.6415 46.5692 45.6384 46.5031C42.6354 46.4301 37.7715 46.6554 37.7715 46.6554C37.7715 46.6554 35.9124 45.8127 33.2537 45.7597C30.6033 45.7133 27.8602 45.9914 27.8602 45.9914C27.8602 45.9914 24.4052 46.4765 23.9929 46.7629C23.5808 47.041 22.7381 46.8954 22.392 46.4633C22.0461 46.0311 22.1984 45.427 21.6007 45.1289C21.0031 44.8294 17.4686 43.7069 17.2021 44.4768C16.944 45.2548 18.4521 46.6223 18.4521 46.6223L14.1992 45.8127C14.1992 45.8127 16.9174 42.2121 18.9173 41.2286C20.9236 40.2386 23.9003 39.8529 24.7297 43.1954C25.5541 46.5428 25.3024 46.1653 25.3024 46.1653L27.1748 45.9385L27.9992 45.6935C27.9992 45.6935 28.0191 43.2285 26.5574 41.2485C25.0954 39.2619 23.9003 38.5568 23.9003 38.5568C23.9003 38.5568 33.7322 37.5138 41.9318 38.5435C45.7511 39.0219 47.5852 39.3017 49.0008 39.7205C49.6845 39.9191 52.3829 41.2485 54.5349 42.6905C57.4586 44.6439 59.9087 46.8226 59.9087 46.8226ZM16.6178 65.6173C16.6178 65.6173 16.2867 67.3058 15.5615 68.3422C14.8447 69.3785 14.6113 69.4316 14.6113 69.4316L8.29893 69.1849C8.29893 69.1849 9.61506 67.8307 9.81538 66.4218C10.014 65.0131 10.3469 62.6341 10.3469 62.6341C10.3469 62.6341 12.4194 66.0692 13.4359 66.1967C14.459 66.3225 16.6178 65.6173 16.6178 65.6173Z" fill="#FDFDFD"/>
</g>
<mask id="mask1_21_195" style="mask-type:luminance" maskUnits="userSpaceOnUse" x="0" y="68" width="76" height="2">
<path d="M0 68.3687H75.3014V69.7445H0V68.3687Z" fill="white"/>
</mask>
<g mask="url(#mask1_21_195)">
<path fill-rule="evenodd" clip-rule="evenodd" d="M2.20022 69.7842H75.164C75.164 69.7842 5.54931 68.3886 3.19019 68.4747C0.299749 68.5806 -1.8376 69.7842 2.20022 69.7842Z" fill="#FDFDFD"/>
</g>
<mask id="mask2_21_195" style="mask-type:luminance" maskUnits="userSpaceOnUse" x="5" y="37" width="71" height="33">
<path d="M5.64856 37.3101H76V69.7444H5.64856V37.3101Z" fill="white"/>
</mask>
<g mask="url(#mask2_21_195)">
<path fill-rule="evenodd" clip-rule="evenodd" d="M25.8472 50.9612C27.0292 50.8686 28.3437 52.3965 28.5373 53.3998C27.9397 53.0405 27.2013 52.6499 26.251 52.6085C25.5211 52.5754 24.8356 52.7757 24.3589 53.0141C24.1785 53.1002 24.0196 53.2342 23.8738 53.2276C24.0261 52.0572 24.6767 51.0473 25.8472 50.9612ZM70.6595 50.9612C71.065 51.7724 71.5369 53.4064 71.065 54.4825C70.7854 55.1132 69.9956 55.7175 69.0322 55.4128C68.6994 55.3136 68.2871 55.0007 68.0025 54.6943C67.4049 54.0769 67.0124 53.3468 66.7261 52.4495C66.2741 51.0539 66.2146 48.4564 68.2938 48.6948C69.297 48.8025 70.2737 50.2046 70.6595 50.9612ZM35.8049 48.3042C36.5498 48.5972 37.1872 48.9615 37.7253 49.3339C38.2633 49.7047 38.8493 50.117 39.3327 50.6683C39.7317 51.1284 40.3376 51.8321 40.3757 52.5687C40.4171 53.3203 39.879 53.8849 39.3857 54.0769C38.6292 54.3831 37.4736 54.1713 36.7551 53.9444C35.1145 53.4197 33.3879 52.1102 32.2771 50.8222C31.148 49.5127 31.1944 47.7529 33.3613 47.7795C34.3513 47.7926 35.0814 48.0244 35.8049 48.3042ZM18.7368 40.2453C24.1453 37.0089 26.5971 40.7039 27.4746 45.7663C26.8503 45.8127 26.2974 45.9319 25.6931 45.9981C25.3952 44.7102 25.0955 43.4271 24.5509 42.3378C23.2761 39.8132 21.2018 39.7123 18.9703 41.0416C17.0168 42.2054 15.4557 43.8791 14.2803 45.6521C13.9739 45.6257 13.628 45.634 13.2952 45.634C14.5319 43.4602 16.6376 41.5002 18.7368 40.2453ZM6.78418 53.4594C7.30402 52.3039 8.29398 52.0572 8.66486 53.3403C8.40004 52.9147 7.75602 53.0141 7.46294 53.307C6.62526 54.1366 6.43989 56.3035 6.2015 57.6991C6.25453 56.2621 6.2793 54.5751 6.78418 53.4594ZM22.3392 65.2795C22.2664 65.1123 22.0528 64.7614 22.0661 64.5941C22.0792 64.5147 22.2779 64.3094 22.3789 64.1902C23.1421 63.2516 24.1188 62.2766 25.1485 61.7715C25.1749 61.7782 25.1882 61.7981 25.1882 61.8312C25.2346 62.2086 25.0426 62.8542 24.9366 63.2582C24.5708 64.6207 23.9863 65.811 23.4814 66.94C23.0096 66.4946 22.6438 65.9169 22.3392 65.2795ZM23.6603 59.6195C24.2728 59.7833 24.9168 59.9836 25.3025 60.3759C24.8109 60.6823 24.185 60.8279 23.5609 60.9736C22.9169 61.126 22.2117 61.2136 21.4684 61.2469C21.4751 60.5945 21.5082 59.9174 21.6008 59.386C21.6141 59.3264 21.581 59.1856 21.6802 59.1725C22.3392 59.3264 23.0163 59.4456 23.6603 59.6195ZM26.0392 53.6315C25.9001 53.759 25.9664 54.0504 25.9664 54.2905C25.9664 55.9045 26.0061 57.7719 25.7131 59.1145C25.0426 58.4093 24.7364 57.1279 24.4119 55.9973C24.3655 55.8184 24.3175 55.5983 24.2777 55.393C24.238 55.1943 24.1652 54.9609 24.1585 54.7954C24.1585 54.6232 24.2447 54.4295 24.0658 54.3897C23.8788 54.3434 23.5345 54.7423 23.3887 54.8946C21.6405 56.6958 20.8244 60.5415 21.6802 63.8045C21.7532 64.0826 21.8343 64.3557 21.8541 64.6157C22.0594 64.9865 22.1984 65.4054 22.3971 65.7977C23.0361 67.0525 24.4581 68.7743 26.3902 67.9499C26.5639 67.8771 26.7311 67.7976 26.895 67.6982C27.0292 67.6104 27.2362 67.5376 27.2609 67.3655C27.0887 67.3986 27.0423 67.5509 26.8769 67.584C26.5971 65.7316 26.2312 63.7714 26.3702 61.6309C26.6633 61.8312 26.8222 62.1888 27.0292 62.5083C27.5341 63.2863 27.9992 64.1423 28.3635 65.0992C28.4181 65.2448 28.4314 65.5444 28.6565 65.5444C28.7955 65.4782 28.6698 65.3326 28.6366 65.2581C28.1648 64.1902 27.6335 63.2466 27.049 62.2566C26.9364 62.0563 26.5971 61.2997 26.2924 61.3461C26.1054 61.3661 26.0392 61.697 26.0392 61.9437C26.0392 62.9404 26.1915 63.937 26.3124 64.8872C26.4316 65.8772 26.5177 66.7943 26.7561 67.637C25.7792 68.3025 24.1652 67.7562 23.6006 67.0791C23.7479 66.9996 23.7529 66.7679 23.834 66.5741C24.3655 65.2332 25.0293 63.9105 25.3405 62.3096C25.3952 62.0563 25.4482 61.6904 25.3025 61.5978C25.0293 61.4123 24.4516 61.8776 24.258 62.0232C23.3689 62.6755 22.7182 63.5578 21.9932 64.3491C21.6802 63.538 21.5412 62.5612 21.4684 61.5183C22.4981 61.2866 23.6206 61.1077 24.6834 60.8412C24.9366 60.7749 25.488 60.6557 25.5211 60.3759C25.5541 60.0233 25.016 59.8446 24.8224 59.7585C23.8788 59.3331 22.763 59.2205 21.6604 59.0003C22.0263 57.1942 22.6637 55.6595 23.9863 54.8152C24.3108 56.0237 24.5642 57.3001 25.036 58.4357C25.1088 58.6212 25.4019 59.3397 25.6733 59.3462C26.0259 59.3595 26.112 58.6277 26.1385 58.2239C26.2048 57.2057 26.1584 56.2091 26.1584 55.1811C26.1584 54.6695 26.1253 54.1116 26.0988 53.6929C26.1054 53.6465 26.0856 53.6315 26.0392 53.6315ZM13.1363 56.1098C13.1098 57.0601 13.2687 58.07 13.3499 59.093C13.4293 60.0913 13.5088 61.2136 13.3284 62.1755C13.1165 62.0299 13.0634 61.7368 12.984 61.4786C12.3996 59.6195 12.239 56.5683 12.2655 54.6231C12.2457 54.5884 12.2324 54.5553 12.1662 54.5636C11.0702 56.0039 11.6678 59.9572 12.3599 61.7715C12.446 62.0034 12.6513 62.5281 13.1826 62.5547C13.5552 62.5281 13.5816 61.2997 13.5816 60.914C13.5816 59.7121 13.5154 58.6808 13.3896 57.6047C13.3284 57.0799 13.2904 56.5617 13.1363 56.1098ZM47.6449 60.2965C47.9181 60.0035 48.1167 60.0913 48.4959 60.0963C53.3183 59.9902 59.0065 60.0963 64.2875 60.27C64.799 61.0002 65.3239 61.8378 65.8287 62.548C65.9099 62.6539 66.0026 62.6606 65.981 62.7467C65.3239 62.7086 64.3405 62.7814 63.5112 62.7615C57.5911 62.6341 51.5982 62.5414 45.6451 62.4686C45.6781 62.2021 47.433 60.5284 47.6449 60.2965ZM72.1346 58.0303C73.2702 57.9573 73.0516 59.1856 72.9457 59.9174C71.6362 59.8446 69.1248 60.0168 67.6895 60.0963C67.6035 60.1028 67.1051 60.0631 67.1118 60.2436C67.1118 60.3429 67.2508 60.3429 67.3435 60.3561C68.5935 60.5349 71.5104 60.6409 72.7653 60.6028C72.6461 61.0663 72.4475 61.4587 72.2669 61.8643C71.0519 61.9835 69.8483 61.9835 68.5868 62.0034C68.3666 62.0099 67.3965 61.924 67.4577 62.1954C67.4908 62.3163 67.7756 62.3096 67.9428 62.3228C69.297 62.4155 70.9327 62.4222 71.9557 62.5281C71.8696 62.8278 71.7223 63.0662 71.5898 63.3129C70.4674 63.5181 68.9195 63.5116 67.7292 63.4321C67.4246 63.4122 67.0059 63.3526 66.779 63.2334C66.5406 63.1059 66.3469 62.7864 66.1416 62.5281C65.5242 61.7368 65.218 61.1127 64.6601 60.3098C66.1416 59.5185 70.5535 58.1312 72.1346 58.0303ZM35.593 58.7024C37.2469 56.4889 44.968 59.0467 47.3188 60.083C47.226 60.3826 45.0674 62.6755 44.8157 62.9073C44.6684 63.0396 44.4697 63.2863 44.3306 63.3194C44.1303 63.3724 43.8257 63.346 43.5526 63.3526C40.7217 63.4652 37.9587 63.2797 35.886 63.3591C35.7999 63.1721 35.7916 62.9073 35.7652 62.6606C38.4503 62.548 41.2465 62.5414 43.978 62.3427C44.1369 62.3294 44.3439 62.3361 44.4829 62.2368C44.377 62.1176 44.1767 62.1491 44.0377 62.1424C42.9616 62.096 37.121 61.7318 35.626 61.7318C35.5732 61.2931 35.5334 61.0465 35.4738 60.616C36.5365 60.4886 45.8256 60.5681 45.9381 60.3495C45.9117 60.2303 45.7576 60.2833 45.6848 60.275C42.2828 60.1773 38.7417 59.8777 35.3612 59.9374C35.194 59.2006 35.2536 59.1542 35.593 58.7024ZM45.4133 62.7003C48.7756 62.8145 52.1958 62.8145 55.7171 62.8873C58.879 62.9537 62.2148 63.0265 65.4645 63.0198C65.6765 63.0198 66.0357 63.0331 66.1946 63.0596C66.3883 63.0993 66.4944 63.4254 66.7261 63.5049C67.0721 63.6241 67.5505 63.6589 67.9628 63.677C68.8517 63.73 69.7688 63.7648 70.7124 63.6722C71.2505 63.6241 71.7421 63.5777 72.0485 63.3063C72.6195 62.7947 73.2502 60.7021 73.3694 60.1227C73.5169 59.386 73.6559 58.2637 73.2502 57.666C73.1841 57.565 72.8248 57.2868 72.6526 57.2538C72.3266 57.1726 71.8151 57.2935 71.4111 57.3663C70.4873 57.5319 64.8652 59.3331 64.0094 59.8247C58.6142 59.5913 53.1527 59.6244 47.7575 59.4523C46.3901 58.8546 44.8951 58.3762 43.3208 57.9706C41.758 57.565 40.0976 57.161 38.323 57.0799C37.467 57.0468 36.2701 57.1081 35.5599 57.666C35.2139 57.9375 34.9755 58.4755 34.9689 58.901C34.8828 59.3529 35.3065 62.7086 35.3612 62.9404C35.4209 63.2135 35.4606 63.5513 35.6327 63.6522C35.7585 63.73 42.7282 63.6241 43.339 63.591C43.7049 63.5711 44.1171 63.5777 44.3886 63.4916C44.7942 63.3658 45.0674 62.9337 45.4133 62.7003ZM28.6565 56.8481C28.6366 56.8481 28.6168 56.8481 28.5969 56.8481C27.9 57.7719 27.1484 58.7883 26.5838 59.9307C26.5177 60.0631 26.3521 60.3164 26.3902 60.4489C26.458 60.6955 26.8372 60.5349 27.0093 60.4687C27.501 60.2965 27.8139 60.1508 28.2509 59.9705C28.4446 59.8843 28.7029 59.8644 28.7905 59.6593C28.5969 59.5846 28.4248 59.7452 28.2708 59.8115C27.7725 60.0366 27.241 60.2833 26.6036 60.3959C27.1087 59.1261 27.9661 58.0368 28.6763 56.9078C28.683 56.8747 28.6565 56.8747 28.6565 56.8481ZM32.0651 64.6952C32.0784 64.9534 66.241 65.6636 71.3564 65.6636C71.7554 65.6636 72.1875 65.7166 72.5731 65.5858C72.2736 65.4252 71.8415 65.4584 71.4111 65.4518C70.1942 65.4318 68.9113 65.3524 67.6564 65.3524C63.3306 65.3524 32.7225 64.4021 32.0651 64.6952ZM16.5848 66.4549C16.5715 66.4549 16.5582 66.4549 16.545 66.4549C16.3529 66.6535 16.2867 66.94 16.1791 67.1734C15.9605 67.6568 15.641 68.0624 15.31 68.4548C15.1494 68.6336 14.9242 68.8007 14.8845 69.0524C15.1626 69.0723 15.3348 68.8007 15.502 68.627C15.9871 68.1088 16.3662 67.2728 16.6045 66.5146C16.5979 66.5013 16.5848 66.4815 16.5848 66.4549ZM11.3566 66.4946C11.3435 66.4946 11.3369 66.5013 11.3369 66.5146C11.1166 67.3323 10.8584 68.1088 10.4064 68.6865C10.3269 68.7942 10.173 68.8537 10.173 69.0127C10.4528 69.0524 10.6051 68.8074 10.7376 68.627C11.1099 68.1221 11.3897 67.3456 11.4361 66.5543C11.3964 66.5476 11.3964 66.5013 11.3566 66.4946ZM12.8119 66.9599C12.792 66.9599 12.7705 66.9599 12.7506 66.9599C12.5719 67.3258 12.4394 67.6899 12.2655 68.0491C12.1001 68.3952 11.8153 68.627 11.5884 68.9199C11.7822 69.006 11.9742 68.8273 12.0735 68.7262C12.446 68.3422 12.6513 67.6171 12.8119 67.0194C12.8119 66.9996 12.8119 66.9797 12.8119 66.9599ZM14.671 66.9797C14.6379 66.9731 14.6379 66.9996 14.6113 66.9996C14.4326 67.4184 14.2456 67.8042 14.0072 68.1419C13.7736 68.4812 13.416 68.6734 13.176 68.9929C13.5419 69.006 13.888 68.6468 14.0667 68.3952C14.3398 68.016 14.5187 67.5112 14.671 67.0394C14.7041 67.0261 14.671 67.0063 14.671 66.9797ZM31.6992 67.0592C31.6795 67.0525 31.6795 67.0658 31.6795 67.0791C31.2738 67.5245 30.956 68.0426 30.5173 68.4548C30.1647 68.7809 29.7193 68.9796 29.3534 69.3057C29.6862 69.3918 29.966 69.0988 30.2242 68.9398C30.7026 68.6336 30.9957 68.2495 31.3269 67.7562C31.4874 67.5178 31.6529 67.3258 31.6992 67.0592ZM34.0253 67.0989C34.0053 67.1055 33.9922 67.1205 33.9656 67.1205C33.56 67.7379 33.1412 68.3489 32.57 68.8007C32.3847 68.9531 32.1248 69.0391 32.0254 69.2858C32.2969 69.3189 32.4841 69.0723 32.6628 68.9199C32.8498 68.7545 33.0154 68.5806 33.1677 68.3952C33.4805 68.0227 33.805 67.584 34.0053 67.1536C34.0253 67.1536 34.0186 67.1205 34.0253 67.0989ZM68.8733 67.1734C68.8517 67.1734 68.8319 67.1734 68.8186 67.1734C68.4676 67.5923 68.082 68.036 67.5969 68.3952C67.1316 68.7412 66.6003 69.1252 66.0291 69.2461C65.9232 69.2727 65.6964 69.2313 65.6765 69.3653C65.6434 69.5772 65.996 69.458 66.1615 69.405C66.6664 69.2313 67.1051 68.9265 67.4975 68.6468C67.7359 68.4747 68.0223 68.2694 68.274 68.0293C68.4941 67.8174 68.8783 67.4515 68.8733 67.1734ZM70.4409 67.6784C69.7821 68.1899 69.1845 68.6137 68.3865 68.9929C68.1945 69.0855 67.9759 69.1849 67.7689 69.2246C67.4296 69.2991 66.9726 69.213 66.6864 69.3852C66.7525 69.5905 67.0124 69.5375 67.1713 69.5375C67.8484 69.5375 68.2474 69.3918 68.6596 69.1716C69.3914 68.7743 69.941 68.3158 70.4261 67.7379C70.4343 67.7231 70.4459 67.7032 70.4409 67.6784ZM72.9987 66.4748C72.8993 66.3623 72.7917 66.349 72.6526 66.3423C71.7951 66.2745 70.926 66.3159 70.0553 66.2828C58.9999 65.8705 47.1532 65.8772 36.1311 65.8772C34.391 65.8772 33.022 65.8441 31.3152 65.7779C30.5768 65.1339 30.2972 64.1025 30.2441 62.7947C30.1382 60.1691 30.2772 57.2405 29.8004 54.9146C29.4743 53.3005 28.8238 50.8619 25.9796 50.8023C24.9234 50.8156 24.3308 51.6335 23.9863 52.4296C23.8738 52.6962 23.7065 53.0075 23.7529 53.3203C19.2832 55.9376 18.4588 66.3092 23.2761 68.7329C23.4284 68.814 23.6271 68.8868 23.8209 68.9465C24.0129 69.006 24.5244 69.0391 24.6634 69.0326C24.8223 69.026 24.8307 68.9398 24.9565 68.9199C25.3074 68.867 25.6005 68.9596 25.8853 68.9199C27.2013 68.7262 28.1517 67.983 28.9097 67.1734C29.2011 66.8605 29.5207 66.5145 29.6663 66.0692C29.5273 66.0428 29.4545 66.21 29.3948 66.2828C28.8685 66.9533 28.3187 67.5773 27.554 68.0491C26.6897 68.5739 25.3886 68.8537 24.238 68.4747C22.3193 67.8902 21.389 66.21 20.8774 64.4352C19.3279 59.0731 23.2431 50.842 28.1714 53.4792C28.2311 53.5256 28.3585 53.6465 28.4048 53.6515C28.5506 53.6646 28.5373 53.5654 28.6168 53.5521C29.1217 55.3997 29.3534 57.6577 29.3534 60.0631C29.3534 61.2866 29.2956 62.5016 29.4478 63.5513C29.6001 64.5544 30.0653 65.8507 30.9229 66.3689C32.9095 66.3423 34.9622 66.3292 36.9688 66.349C36.7816 66.993 34.9755 68.7131 34.391 69.0326C34.2371 69.1186 34.0186 69.16 33.9259 69.3455C35.0616 69.1782 36.7287 67.3522 37.2402 66.349C47.2526 66.5013 57.3312 66.4549 67.284 66.6138C66.62 67.844 65.5175 68.9265 63.6832 69.0127C62.0492 69.0988 60.7398 68.2892 60.0229 67.3853C59.9634 67.3125 59.8956 67.2512 59.8426 67.1734C59.8095 67.1122 59.8161 66.993 59.7101 66.9797C59.5644 67.0344 59.7631 67.132 59.7895 67.1933C60.6537 68.3422 61.9019 69.3983 63.9564 69.1932C65.7626 69.006 66.9131 67.9499 67.5571 66.6138C68.7921 66.6337 70.1347 66.6884 71.4309 66.6884C71.8696 66.6884 72.3332 66.6337 72.7321 66.6668C72.8596 66.6818 72.8381 66.7413 72.9457 66.7265C73.5169 66.5212 74.0681 65.9433 74.3727 65.412C74.4919 65.2117 74.5664 65.0064 74.4919 64.7349C74.401 64.3888 74.0681 64.0495 74.0085 63.725C73.9423 63.3393 74.0946 62.7748 74.1609 62.3294C74.3612 61.0796 74.4588 59.6443 74.3198 58.2023C74.1343 56.3565 73.8214 54.9212 73.1643 53.6515C74.2006 54.6281 74.8314 55.9509 75.3031 57.565C75.7882 59.2006 75.8742 61.313 75.424 63.1274C75.0184 64.7614 74.2006 66.1222 73.2105 67.2114C72.3414 68.175 71.0188 69.0326 69.4576 69.3653C69.3501 69.3852 69.1976 69.3852 69.2043 69.4977C69.2109 69.665 69.7093 69.511 69.8218 69.4778C71.3829 69.0788 72.4524 68.2428 73.4092 67.2926C74.4738 66.2215 75.3031 64.6472 75.6955 62.9735C76.1408 61.0266 75.9488 58.8414 75.3826 57.2207C74.8859 55.772 74.386 54.595 73.3761 53.6515C73.2438 53.5323 73.0102 53.38 72.9324 53.2276C72.6659 52.7293 72.4325 52.2575 72.1014 51.8122C71.7818 51.3735 71.4309 50.8222 71.138 50.3636C70.4542 49.2941 69.6496 48.5161 68.4477 48.2578C67.0456 47.4136 65.5042 46.8291 63.5971 46.4301C61.0328 45.8855 60.1356 46.6702 59.225 46.9682C58.5281 47.1752 58.1755 47.0808 57.4984 47.0741C56.2286 47.0675 54.6344 46.9682 53.219 46.8688C49.0803 46.5957 44.9415 46.1653 40.4899 46.3706C39.1143 46.4301 38.4172 46.6023 37.1806 46.1389C34.4043 45.0876 31.4808 45.3542 28.5571 45.634C28.3187 44.0645 27.1484 40.3645 25.4547 39.315C31.7787 38.5832 43.1469 38.2389 48.5952 39.9788C52.6014 41.2618 55.4588 43.3279 58.879 46.0577C58.8542 45.9319 58.7334 45.8524 58.6473 45.7663C58.0298 45.1539 57.2716 44.5893 56.5548 44.0462C54.6144 42.5828 52.5617 41.3478 50.3351 40.1261C44.7213 37.042 27.1881 37.229 21.4088 38.81C20.6108 39.0286 19.2219 39.7271 18.5647 40.1311C15.9738 41.707 14.671 43.1673 13.0039 45.6737C9.7145 45.9252 7.79409 48.2644 6.76439 51.1136C6.10708 52.9213 5.71641 54.994 5.87534 57.4524C5.89528 57.7636 5.9681 58.0633 5.98789 58.3629C5.90193 60.7485 5.54918 64.4088 6.89839 67.9963C7.12364 68.5276 7.895 68.9929 8.56561 68.8604C9.77569 68.6137 10.3469 64.6686 10.0802 64.6157C9.87509 66.0428 9.50255 67.3456 9.14995 67.9896C8.99767 68.2561 8.80551 68.627 8.47285 68.627C7.96133 68.627 7.47624 67.7446 7.31067 67.2926C6.29426 64.5213 6.23292 60.2436 6.66499 56.6363C6.78418 55.6861 7.00444 54.6017 7.44315 53.8649C7.57549 53.6315 7.83548 53.327 8.08052 53.3203C8.4795 53.3203 8.7327 53.9246 8.89827 54.2905C9.69457 56.0701 9.90153 60.0035 10.2525 62.0762C10.3121 62.4355 10.3667 62.8873 10.4859 63.1854C10.764 63.8773 12.3466 65.5776 12.8648 66.0097C13.0767 66.1834 13.3234 66.4151 13.5419 66.4549C13.815 66.5079 14.1726 66.3887 14.459 66.3225C16.8843 65.7315 17.8942 65.9566 20.2648 66.5741C20.3724 66.6007 20.538 66.7016 20.6572 66.5741C20.6572 66.2547 20.3576 65.7497 20.1456 65.6636C19.2501 65.306 16.9043 65.0528 14.81 65.6107C14.5385 65.6918 13.8548 65.7382 13.5685 65.705C13.0106 65.6438 11.004 63.4321 10.8451 63.0662C10.7193 62.7748 10.6647 62.1623 10.6117 61.7715C10.2806 59.2536 10.1532 56.0834 9.28229 53.7193C9.07714 53.1266 8.77741 52.4959 8.41318 52.2442C7.92824 51.9181 7.20975 52.2309 6.72632 53.168C6.20649 54.1894 6.23957 55.6595 6.06735 57.0203C5.94166 55.1944 6.23293 53.2211 6.76439 51.6599C7.18981 50.4033 8.40004 47.7265 9.94126 47.5459C10.8782 47.44 11.7673 47.786 12.4194 48.0924C13.0834 48.4036 13.7886 48.7362 14.5716 48.9415C15.3895 49.1618 16.3861 49.3008 17.2833 49.1749C17.934 49.0873 18.5911 48.9548 19.1821 48.8092C19.3693 48.7628 19.5877 48.7562 19.7269 48.6154C19.3758 48.6089 19.0034 48.7164 18.6044 48.7695C18.2054 48.8223 17.8015 48.8687 17.4025 48.9084C16.5979 48.9746 15.7669 48.8423 15.0567 48.6154C13.6744 48.1783 12.5784 47.4467 11.163 47.1405C11.1365 47.1355 11.1232 47.1272 11.1035 47.1205C10.7243 47.0808 10.3866 47.1007 10.0737 47.1603C10.7376 46.6835 11.4758 46.2581 12.9045 46.0444C14.651 45.7863 15.8613 46.2117 17.3214 46.4434C17.1955 46.2647 16.9307 46.2183 16.7237 46.1586C16.0666 45.9518 15.2901 45.7863 14.5319 45.6737C15.31 44.2582 17.8263 41.7137 19.303 41.0218C23.7812 38.916 24.2644 42.7765 25.0955 46.2778C24.5906 46.5493 23.2678 47.1884 22.7299 46.5626C22.4318 46.225 22.3723 45.4932 22.0727 45.1886C21.5346 44.6374 19.3163 43.952 17.8214 44.0314C17.4289 44.0579 17.0035 44.3046 16.9571 44.6439C16.8313 45.5462 18.2866 47.3208 19.6739 47.3805C20.5844 47.4467 21.5279 47.2944 22.1786 47.5128C22.4517 47.6603 22.864 48.1783 23.1288 48.3372C23.1288 48.3372 22.9633 47.7 22.3971 47.2613C22.1189 47.1072 21.7946 47.1405 21.4088 47.1205C20.6705 47.0874 19.8211 47.1536 19.2632 46.9285C18.6442 46.6835 17.1161 45.0809 17.4555 44.6158C18.0068 43.8592 21.0231 44.8028 21.7614 45.4667C22.1786 45.8391 22.0395 47.0411 23.3092 47.3075C23.6139 47.3739 23.9863 47.2878 24.286 47.2347C27.7989 46.5826 29.3948 48.1452 31.4675 50.8156C32.5502 52.2161 34.2504 53.918 36.7882 54.4428C37.8462 54.6562 39.0016 54.6414 39.8708 54.2308C40.3707 54.0041 40.7084 53.5868 40.7217 52.9744C40.7416 52.3701 40.4833 51.8652 40.2035 51.4065C39.6589 50.516 38.9354 49.852 38.1308 49.2941C37.3263 48.7362 36.3578 48.238 35.3198 47.8987C34.1974 47.5261 32.643 47.3142 31.792 47.9118C31.2474 48.2975 30.8682 49.1419 31.4675 50.0706C31.3483 50.0243 31.3019 49.9051 31.2341 49.8189C30.0985 48.4102 28.6168 46.8291 26.8172 46.4634C29.6332 46.1389 34.6427 45.7796 37.3147 46.796C40.0181 47.8257 42.3837 49.3802 44.5228 51.0142C45.7925 51.9844 46.9745 52.9875 48.1432 54.0586C48.3087 54.211 48.4429 54.4162 48.668 54.4825C48.6216 54.2175 48.3767 54.0504 48.2028 53.8649C47.678 53.2939 47.087 52.7293 46.496 52.1979C44.1502 50.0904 41.5396 48.291 38.5364 46.8291C43.978 46.5295 49.3335 47.0278 54.4821 47.3937C55.3248 47.4533 56.2022 47.4931 57.1127 47.5459C57.7632 47.5923 58.4139 47.6536 59.0132 47.7463C59.2316 47.7795 59.4585 47.7595 59.6306 47.8192C59.9435 47.9251 60.3276 48.2975 60.6008 48.5359C61.8424 49.6186 65.8751 55.585 66.0291 55.6264C65.0988 53.5521 62.0492 48.3903 60.0031 47.2216C60.6802 47.2216 61.0792 46.7762 63.3306 47.0344C65.1318 47.3739 66.6533 47.7795 68.0223 48.4433C66.693 48.5625 66.1152 49.5988 66.0621 50.8619C65.996 52.6829 66.8651 54.1713 67.7889 55.0271C68.2474 55.4592 68.9113 55.7986 69.7093 55.8053C71.1842 55.8053 71.9143 54.3169 71.5501 52.5488C71.5037 52.0308 71.378 51.6135 71.1975 51.155C71.1975 51.1351 71.1777 51.1351 71.1777 51.1136C72.2206 52.6218 73.2835 54.3302 73.795 56.4227C74.1873 58.0303 74.2999 59.9638 74.0085 61.7501C73.9622 62.0432 73.934 62.3427 73.8893 62.6225C73.8562 62.894 73.8281 63.1854 73.6956 63.4188C73.6559 64.071 74.1343 64.4551 74.0879 65.0262C74.0615 65.3126 73.795 65.6238 73.6228 65.8374C73.4225 66.0825 73.2105 66.2828 72.9987 66.4748Z" fill="#FDFDFD"/>
</g>
</svg>
